<html>
<head>
<meta charset="UTF-8">
<meta name="viewport" content="width=device-width, initial-scale=1.0"/>

<style>
.comment
{
    padding-left: 20px;
    margin-top: 4px;
    margin-right: 4px;
    margin-bottom: 4px;
    border: 2px #000 solid;
}
.submission
{
    border: 4px #00f solid;
    padding-left: 20px;
}
.hidden
{
    display: none;
}
</style>
</head>
<body><div class="submission" id="t3_66odnh">
    <p class="userinfo">
        <a href="https://www.reddit.com/u/jodorowsthesky">jodorowsthesky</a>
        <span class="score"> | 15 points</span>
        <span class="timestamp"> | Apr 21 2017 10:34:55</span>
    </p>
    <strong>[MOVIE] Earth vs the Flying Saucers (1956) [1080p][x264][1.6GB]</strong>
    <p><p>.nz/#!UnAUFbDI!4M8hKR76KVtM7AYJTNwsxBW2Bb4IXmLSjQbf_8GXZtg  </p>
<pre><code>Format                                   : MPEG-4
Format profile                           : Base Media
Codec ID                                 : isom (isom/iso2/avc1/mp41)
File size                                : 1.60 GiB
Duration                                 : 1 h 23 min
Overall bit rate                         : 2 730 kb/s
Movie name                               : Earth.vs.the.Flying.Saucers.1956.1080p.BluRay.H264.AAC-RARBG
Encoded date                             : UTC 2016-05-17 06:32:13
Tagged date                              : UTC 2016-05-17 06:32:13
Writing application                      : Lavf56.40.101
Comment                                  : Earth.vs.the.Flying.Saucers.1956.1080p.BluRay.H264.AAC-RARBG

Video
ID                                       : 1
Format                                   : AVC
Format/Info                              : Advanced Video Codec
Format profile                           : High@L4.1
Format settings, CABAC                   : Yes
Format settings, ReFrames                : 4 frames
Codec ID                                 : avc1
Codec ID/Info                            : Advanced Video Coding
Duration                                 : 1 h 23 min
Bit rate                                 : 2 500 kb/s
Width                                    : 1 920 pixels
Height                                   : 1 080 pixels
Display aspect ratio                     : 16:9
Frame rate mode                          : Constant
Frame rate                               : 23.976 (23976/1000) FPS
Color space                              : YUV
Chroma subsampling                       : 4:2:0
Bit depth                                : 8 bits
Scan type                                : Progressive
Bits/(Pixel*Frame)                       : 0.050
Stream size                              : 1.46 GiB (92%)
Writing library                          : x264 core 148 r2638M 7599210
Encoding settings                        : cabac=1 / ref=4 / deblock=1:-1:-1 / analyse=0x3:0x113 / me=umh / subme=9 / psy=1 / psy_rd=1.00:0.15 / mixed_ref=1 / me_range=24 / chroma_me=1 / trellis=2 / 8x8dct=1 / cqm=0 / deadzone=21,11 / fast_pskip=1 / chroma_qp_offset=-3 / threads=32 / lookahead_threads=4 / sliced_threads=0 / nr=0 / decimate=1 / interlaced=0 / bluray_compat=0 / constrained_intra=0 / bframes=3 / b_pyramid=2 / b_adapt=2 / b_bias=0 / direct=3 / weightb=1 / open_gop=0 / weightp=2 / keyint=250 / keyint_min=25 / scenecut=40 / intra_refresh=0 / rc_lookahead=50 / rc=2pass / mbtree=1 / bitrate=2500 / ratetol=1.0 / qcomp=0.60 / qpmin=0 / qpmax=69 / qpstep=4 / cplxblur=20.0 / qblur=0.5 / vbv_maxrate=31250 / vbv_bufsize=31250 / nal_hrd=none / filler=0 / ip_ratio=1.40 / aq=3:1.00
Encoded date                             : UTC 2016-05-17 06:32:13
Tagged date                              : UTC 2016-05-17 06:32:13

Audio
ID                                       : 2
Format                                   : AAC
Format/Info                              : Advanced Audio Codec
Format profile                           : LC
Codec ID                                 : 40
Duration                                 : 1 h 23 min
Bit rate mode                            : Constant
Bit rate                                 : 224 kb/s
Channel(s)                               : 2 channels
Channel(s)_Original                      : 6 channels
Channel positions                        : Front: L C R, Side: L R, LFE
Sampling rate                            : 48.0 kHz
Frame rate                               : 46.875 FPS (1024 spf)
Compression mode                         : Lossy
Stream size                              : 134 MiB (8%)
Language                                 : English
Default                                  : Yes
Alternate group                          : 1
Encoded date                             : UTC 2016-05-17 06:32:13
Tagged date                              : UTC 2016-05-17 06:32:13
</code></pre></p>
    <p class="toolbar">
        <a href="https://www.reddit.com/r/megalinks/comments/66odnh">permalink</a>
    </p>
</div>
<div class="comment" id="t1_dgkpj4s">
    <p class="userinfo">
        <a
        class="toggle_hide_button"
        href="javascript:void(0)"
        onclick="toggle_collapse(this.parentElement.parentElement)">[-]
        </a>
        <a href="https://www.reddit.com/u/bringer1111">bringer1111</a>
        <span class="score"> | 3 points</span>
        <span class="timestamp"> | Apr 21 2017 19:55:55</span>
    </p>
    <div class="collapsible">
        <p>Thanks, I love all these old sci-fi movies.</p>
        <p class="toolbar">
            <a href="https://www.reddit.com/r/megalinks/comments/66odnh/_/dgkpj4s">permalink</a>
        </p>
        
    </div>
</div>

<div class="comment" id="t1_dgkd7nm">
    <p class="userinfo">
        <a
        class="toggle_hide_button"
        href="javascript:void(0)"
        onclick="toggle_collapse(this.parentElement.parentElement)">[-]
        </a>
        <a href="https://www.reddit.com/u/ruralcricket">ruralcricket</a>
        <span class="score"> | 2 points</span>
        <span class="timestamp"> | Apr 21 2017 16:01:38</span>
    </p>
    <div class="collapsible">
        <p>Thanks!</p>
        <p class="toolbar">
            <a href="https://www.reddit.com/r/megalinks/comments/66odnh/_/dgkd7nm">permalink</a>
        </p>
        
    </div>
</div>

<div class="comment" id="t1_dgkn9y3">
    <p class="userinfo">
        <a
        class="toggle_hide_button"
        href="javascript:void(0)"
        onclick="toggle_collapse(this.parentElement.parentElement)">[-]
        </a>
        <a href="https://www.reddit.com/u/1138bladerunner">1138bladerunner</a>
        <span class="score"> | 2 points</span>
        <span class="timestamp"> | Apr 21 2017 19:11:45</span>
    </p>
    <div class="collapsible">
        <p>Woah thanks Ive been looking everywhere for this</p>
        <p class="toolbar">
            <a href="https://www.reddit.com/r/megalinks/comments/66odnh/_/dgkn9y3">permalink</a>
        </p>
        
    </div>
</div>

<div class="comment" id="t1_dgk0c8p">
    <p class="userinfo">
        <a
        class="toggle_hide_button"
        href="javascript:void(0)"
        onclick="toggle_collapse(this.parentElement.parentElement)">[-]
        </a>
        <a href="https://www.reddit.com/u/SubZorro">SubZorro</a>
        <span class="score"> | 1 points</span>
        <span class="timestamp"> | Apr 21 2017 10:37:05</span>
    </p>
    <div class="collapsible">
        <h5>Subtitles for this movie:</h5>
<hr>
<blockquote>
<ul>
<li>
<p><strong>Earth vs. the Flying Saucers</strong> - <code>1 CD</code> - <a href="http://dl.opensubtitles.org/en/download/vrf-70cd2bea/sub/3664280">Download Subtitle</a></p>
</li>
<li>
<p><strong>Earth vs. the Flying Saucers 1956 2in1 1080p BluRay Remux AVC TrueHD 5.1 COMM-KESH</strong> - <code>1 CD</code> - <a href="http://dl.opensubtitles.org/en/download/vrf-5bf9dd3b/sub/6312775">Download Subtitle</a></p>
</li>
<li>
<p><strong>Earth vs. the Flying Saucers (1956) 720p Bluray x264-M@</strong> - <code>1 CD</code> - <a href="http://dl.opensubtitles.org/en/download/vrf-c9c2496e/sub/5606688">Download Subtitle</a></p>
</li>
<li>
<p><strong>Earth vs. the Flying Saucers.720p.CiNEFiLE</strong> - <code>1 CD</code> - <a href="http://dl.opensubtitles.org/en/download/vrf-03d704c8/sub/5063111">Download Subtitle</a></p>
</li>
</ul>
</blockquote>
<hr>
<p>^This ^list ^of ^subtitles ^are ^taken ^from <a href="http://www.opensubtitles.org">^opensubtitles.org</a> ^| ^For ^feedback ^or ^suggestions ^contact <a href="http://www.reddit.com/message/compose/?to=indigo6alpha">^/u/indigo6alpha</a></p>
        <p class="toolbar">
            <a href="https://www.reddit.com/r/megalinks/comments/66odnh/_/dgk0c8p">permalink</a>
        </p>
        
    </div>
</div>
</body>

<script>
function toggle_collapse(comment_div)
{
    var button = comment_div.getElementsByClassName("toggle_hide_button")[0];
    var collapsible = comment_div.getElementsByClassName("collapsible")[0];
    if (collapsible.classList.contains("hidden"))
    {
        collapsible.classList.remove("hidden");
        button.innerText = "[-]";
    }
    else
    {
        collapsible.classList.add("hidden");
        button.innerText = "[+]";
    }
}
</script>
</html>
